<!DOCTYPE svg PUBLIC "-//W3C//DTD SVG 1.1//EN" "http://www.w3.org/Graphics/SVG/1.1/DTD/svg11.dtd">
<!-- Uploaded to: SVG Repo, www.svgrepo.com, Transformed by: SVG Repo Mixer Tools -->
<svg fill="#00573d" width="800px" height="800px" viewBox="0 0 32 32" version="1.1" xmlns="http://www.w3.org/2000/svg" stroke="#00573d" stroke-width="0.32">
<g id="SVGRepo_bgCarrier" stroke-width="0"/>
<g id="SVGRepo_tracerCarrier" stroke-linecap="round" stroke-linejoin="round"/>
<g id="SVGRepo_iconCarrier"> <title>send-back</title> <path d="M16 22.471h-5.98c-0.412-0.006-0.744-0.338-0.75-0.749v-5.721c0-0.69-0.56-1.25-1.25-1.25s-1.25 0.56-1.25 1.25v0 5.721c0.002 1.794 1.456 3.248 3.25 3.25h5.981c0.69 0 1.25-0.56 1.25-1.25s-0.56-1.25-1.25-1.25v0zM16 9.27h5.721c0.412 0.006 0.744 0.338 0.75 0.749v5.981c0 0.69 0.56 1.25 1.25 1.25s1.25-0.56 1.25-1.25v0-5.98c-0.002-1.794-1.456-3.248-3.25-3.25h-5.721c-0.69 0-1.25 0.56-1.25 1.25s0.56 1.25 1.25 1.25v0zM13.25 10v-6c-0.002-1.794-1.456-3.248-3.25-3.25h-6c-1.794 0.002-3.248 1.456-3.25 3.25v6c0.002 1.794 1.456 3.248 3.25 3.25h6c1.794-0.002 3.248-1.456 3.25-3.25v-0zM3.25 10v-6c0.006-0.412 0.338-0.744 0.749-0.75h6.001c0.412 0.006 0.744 0.338 0.75 0.749v6.001c-0.006 0.412-0.338 0.744-0.749 0.75h-6.001c-0.412-0.006-0.744-0.338-0.75-0.749v-0.001zM28 18.75h-6c-1.794 0.001-3.249 1.456-3.25 3.25v6c0.001 1.794 1.456 3.249 3.25 3.25h6c1.794-0.001 3.249-1.456 3.25-3.25v-6c-0.001-1.794-1.456-3.249-3.25-3.25h-0zM28.75 28c-0.006 0.412-0.338 0.744-0.749 0.75h-6.001c-0.412-0.006-0.744-0.338-0.75-0.749v-6.001c0.006-0.412 0.338-0.744 0.749-0.75h6.001c0.412 0.006 0.744 0.338 0.75 0.749v0.001z"/> </g>
</svg>